<?xml version="1.0" encoding="UTF-8" standalone="no"?>
<!DOCTYPE svg PUBLIC "-//W3C//DTD SVG 1.1//EN"
 "http://www.w3.org/Graphics/SVG/1.1/DTD/svg11.dtd">
<!-- Generated by graphviz version 2.26.3 (20100126.1600)
 -->
<!-- Title: _anonymous_0 Pages: 1 -->
<svg width="86pt" height="108pt"
 viewBox="0.00 0.00 85.73 108.00" xmlns="http://www.w3.org/2000/svg" xmlns:xlink="http://www.w3.org/1999/xlink">
<g id="graph1" class="graph" transform="scale(0.556701 0.556701) rotate(0) translate(4 190)">
<title>_anonymous_0</title>
<!-- h[0] -->
<g id="node1" class="node"><title>h[0]</title>
<ellipse fill="white" stroke="black" cx="73" cy="-167" rx="31.8198" ry="18.3848"/>
<text text-anchor="middle" x="73" y="-163.4" font-family="Times Roman,serif" font-size="14.00">h[0]</text>
</g>
<!-- h[1] -->
<g id="node3" class="node"><title>h[1]</title>
<ellipse fill="white" stroke="black" cx="32" cy="-93" rx="31.8198" ry="18.3848"/>
<text text-anchor="middle" x="32" y="-89.4" font-family="Times Roman,serif" font-size="14.00">h[1]</text>
</g>
<!-- h[0]&#45;&gt;h[1] -->
<g id="edge2" class="edge"><title>h[0]&#45;&gt;h[1]</title>
<path fill="none" stroke="black" d="M63.075,-149.087C58.19,-140.27 52.2017,-129.462 46.7903,-119.695"/>
<polygon fill="black" stroke="black" points="49.7415,-117.799 41.8336,-110.748 43.6185,-121.192 49.7415,-117.799"/>
</g>
<!-- h[2] -->
<g id="node5" class="node"><title>h[2]</title>
<ellipse fill="white" stroke="black" cx="114" cy="-93" rx="31.8198" ry="18.3848"/>
<text text-anchor="middle" x="114" y="-89.4" font-family="Times Roman,serif" font-size="14.00">h[2]</text>
</g>
<!-- h[0]&#45;&gt;h[2] -->
<g id="edge4" class="edge"><title>h[0]&#45;&gt;h[2]</title>
<path fill="none" stroke="black" d="M82.925,-149.087C87.81,-140.27 93.7983,-129.462 99.2097,-119.695"/>
<polygon fill="black" stroke="black" points="102.382,-121.192 104.166,-110.748 96.2585,-117.799 102.382,-121.192"/>
</g>
<!-- h[3] -->
<g id="node7" class="node"><title>h[3]</title>
<ellipse fill="white" stroke="black" cx="32" cy="-19" rx="31.8198" ry="18.3848"/>
<text text-anchor="middle" x="32" y="-15.4" font-family="Times Roman,serif" font-size="14.00">h[3]</text>
</g>
<!-- h[1]&#45;&gt;h[3] -->
<g id="edge6" class="edge"><title>h[1]&#45;&gt;h[3]</title>
<path fill="none" stroke="black" d="M32,-74.3267C32,-66.2639 32,-56.6477 32,-47.7115"/>
<polygon fill="black" stroke="black" points="35.5001,-47.6673 32,-37.6674 28.5001,-47.6674 35.5001,-47.6673"/>
</g>
<!-- h[4] -->
<g id="node9" class="node"><title>h[4]</title>
<ellipse fill="white" stroke="black" cx="114" cy="-19" rx="31.8198" ry="18.3848"/>
<text text-anchor="middle" x="114" y="-15.4" font-family="Times Roman,serif" font-size="14.00">h[4]</text>
</g>
<!-- h[1]&#45;&gt;h[4] -->
<g id="edge8" class="edge"><title>h[1]&#45;&gt;h[4]</title>
<path fill="none" stroke="black" d="M49.3901,-77.3065C60.914,-66.9069 76.2128,-53.1006 89.0306,-41.5333"/>
<polygon fill="black" stroke="black" points="91.5559,-43.9689 96.635,-34.6709 86.8661,-38.7722 91.5559,-43.9689"/>
</g>
<!-- h[2]&#45;&gt;h[4] -->
<g id="edge10" class="edge"><title>h[2]&#45;&gt;h[4]</title>
<path fill="none" stroke="black" d="M114,-74.3267C114,-66.2639 114,-56.6477 114,-47.7115"/>
<polygon fill="black" stroke="black" points="117.5,-47.6673 114,-37.6674 110.5,-47.6674 117.5,-47.6673"/>
</g>
</g>
</svg>
